<?xml version="1.0" encoding="UTF-8" standalone="no"?>
<!-- Created with Inkscape (http://www.inkscape.org/) -->

<svg
   xmlns:dc="http://purl.org/dc/elements/1.1/"
   xmlns:cc="http://creativecommons.org/ns#"
   xmlns:rdf="http://www.w3.org/1999/02/22-rdf-syntax-ns#"
   xmlns:svg="http://www.w3.org/2000/svg"
   xmlns="http://www.w3.org/2000/svg"
   xmlns:sodipodi="http://sodipodi.sourceforge.net/DTD/sodipodi-0.dtd"
   xmlns:inkscape="http://www.inkscape.org/namespaces/inkscape"
   width="210mm"
   height="297mm"
   viewBox="0 0 210 297"
   version="1.1"
   id="svg8"
   inkscape:version="0.92.4 (5da689c313, 2019-01-14)"
   sodipodi:docname="logo4.svg">
  <defs
     id="defs2">
    <inkscape:perspective
       sodipodi:type="inkscape:persp3d"
       inkscape:vp_x="178.40476 : 118.2619 : 1"
       inkscape:vp_y="0 : 1000 : 0"
       inkscape:vp_z="388.40476 : 118.2619 : 1"
       inkscape:persp3d-origin="283.40476 : 68.761903 : 1"
       id="perspective3729" />
  </defs>
  <sodipodi:namedview
     id="base"
     pagecolor="#ffffff"
     bordercolor="#666666"
     borderopacity="1.0"
     inkscape:pageopacity="0.0"
     inkscape:pageshadow="2"
     inkscape:zoom="0.35"
     inkscape:cx="400"
     inkscape:cy="560"
     inkscape:document-units="mm"
     inkscape:current-layer="layer1"
     showgrid="false"
     inkscape:window-width="1366"
     inkscape:window-height="705"
     inkscape:window-x="-8"
     inkscape:window-y="-8"
     inkscape:window-maximized="1" />
  <metadata
     id="metadata5">
    <rdf:RDF>
      <cc:Work
         rdf:about="">
        <dc:format>image/svg+xml</dc:format>
        <dc:type
           rdf:resource="http://purl.org/dc/dcmitype/StillImage" />
        <dc:title></dc:title>
      </cc:Work>
    </rdf:RDF>
  </metadata>
  <g
     inkscape:label="Capa 1"
     inkscape:groupmode="layer"
     id="layer1">
    <flowRoot
       xml:space="preserve"
       id="flowRoot3721"
       style="fill:black;fill-opacity:1;stroke:none;font-family:sans-serif;font-style:normal;font-weight:normal;font-size:40px;line-height:1.25;letter-spacing:0px;word-spacing:0px"><flowRegion
         id="flowRegion3723"><rect
           id="rect3725"
           width="165.71428"
           height="240"
           x="40"
           y="322.51968" /></flowRegion><flowPara
         id="flowPara3727"></flowPara></flowRoot>    <g
       id="g3830"
       transform="translate(8.4384044,1.1939191)">
      <g
         aria-label="JCV"
         transform="matrix(0.99989598,0,0,0.54677942,-76.055974,-91.969414)"
         style="font-style:normal;font-weight:normal;font-size:74.66666412px;line-height:1.25;font-family:sans-serif;letter-spacing:0px;word-spacing:0px;fill:#000000;fill-opacity:1;stroke:none"
         id="flowRoot3713">
        <path
           d="m 130.05534,353.6734 q 0,7.14583 -4.375,11.01041 -4.33854,3.86459 -11.66667,3.86459 -1.75,0 -4.66667,-0.32813 -2.91666,-0.29167 -4.88541,-0.72917 v -6.74479 h 0.40104 q 1.49479,0.51042 3.68229,1.05729 2.1875,0.54688 4.48438,0.54688 3.35416,0 5.32291,-0.76563 2.00521,-0.76562 2.95313,-2.1875 0.98437,-1.45833 1.23958,-3.57291 0.29167,-2.11459 0.29167,-4.88542 v -31.68229 h -11.48438 v -5.76042 h 18.70313 z"
           style="font-size:74.66666412px"
           id="path3858"
           inkscape:connector-curvature="0" />
        <path
           d="m 186.05533,363.84527 q -2.0052,0.875 -3.64583,1.64063 -1.60417,0.76562 -4.22917,1.60416 -2.22395,0.69271 -4.84895,1.16667 -2.58855,0.51042 -5.72396,0.51042 -5.90625,0 -10.75521,-1.64063 -4.8125,-1.67708 -8.38542,-5.21354 -3.5,-3.46354 -5.46875,-8.78646 -1.96875,-5.35937 -1.96875,-12.43229 0,-6.70833 1.89584,-11.99479 1.89583,-5.28646 5.46875,-8.93229 3.46354,-3.53646 8.34896,-5.39584 4.92187,-1.85937 10.90104,-1.85937 4.375,0 8.71354,1.05729 4.375,1.05729 9.69791,3.71875 v 8.56771 h -0.54687 q -4.48438,-3.75521 -8.89583,-5.46875 -4.41146,-1.71354 -9.44271,-1.71354 -4.11979,0 -7.4375,1.34896 -3.28125,1.3125 -5.86979,4.11979 -2.51563,2.73437 -3.9375,6.92708 -1.38542,4.15625 -1.38542,9.625 0,5.72396 1.53125,9.84375 1.56771,4.11979 4.01042,6.70833 2.55208,2.69792 5.94271,4.01042 3.42708,1.27604 7.21874,1.27604 5.21355,0 9.77084,-1.78646 4.55729,-1.78646 8.53125,-5.35937 h 0.51041 z"
           style="font-size:74.66666412px"
           id="path3860"
           inkscape:connector-curvature="0" />
        <path
           d="m 239.13867,313.49631 -19.76042,54.28646 h -9.625 l -19.76041,-54.28646 h 7.72916 l 17.02605,47.76042 17.02604,-47.76042 z"
           style="font-size:74.66666412px"
           id="path3862"
           inkscape:connector-curvature="0" />
      </g>
    </g>
  </g>
</svg>
